<?xml version="1.0" standalone="no"?>
<!DOCTYPE svg PUBLIC "-//W3C//DTD SVG 20010904//EN"
 "http://www.w3.org/TR/2001/REC-SVG-20010904/DTD/svg10.dtd">
<svg version="1.0" xmlns="http://www.w3.org/2000/svg"
 width="512.000000pt" height="512.000000pt" viewBox="0 0 512.000000 512.000000"
 preserveAspectRatio="xMidYMid meet">
<metadata>
Created by potrace 1.14, written by Peter Selinger 2001-2017
</metadata>
<g transform="translate(0.000000,512.000000) scale(0.100000,-0.100000)"
fill="#000000" stroke="none">
<path d="M1590 4490 l0 -320 -150 0 -150 0 0 160 0 160 -490 0 -490 0 0 -170
0 -170 320 0 320 0 0 -160 0 -160 490 0 490 0 0 320 0 320 310 0 310 0 0 -160
0 -160 330 0 330 0 0 170 0 170 -160 0 -160 0 0 160 0 160 -650 0 -650 0 0
-320z"/>
<path d="M3515 4477 c-3 -7 -4 -82 -3 -167 l3 -155 165 0 165 0 0 165 0 165
-163 3 c-127 2 -164 0 -167 -11z"/>
<path d="M0 3040 l0 -490 315 0 315 0 0 -150 0 -150 -315 0 -315 0 0 -170 0
-170 423 0 c232 0 520 3 640 7 l217 6 0 303 c0 262 2 305 16 318 12 13 40 16
144 16 104 0 132 -3 144 -16 13 -13 16 -42 16 -160 l0 -144 144 0 c118 0 147
-3 160 -16 13 -13 16 -42 16 -159 l0 -143 310 -7 c241 -6 313 -5 325 5 13 11
15 59 15 321 l0 309 150 0 150 0 0 -309 c0 -249 3 -311 14 -320 9 -8 104 -11
327 -9 l314 3 3 318 2 317 150 0 149 0 3 -157 3 -158 157 -3 157 -3 3 -157 3
-157 483 -3 482 -2 0 170 0 170 -155 0 -155 0 0 150 0 150 155 0 155 0 0 170
0 170 -155 0 -155 0 0 150 0 150 155 0 155 0 0 170 0 170 -482 -2 -483 -3 -3
-157 -3 -157 -157 -3 -157 -3 -3 -157 -3 -158 -149 0 -150 0 -2 318 -3 317
-490 3 c-269 2 -631 0 -802 -4 l-313 -6 0 -303 c0 -263 -2 -306 -16 -319 -12
-13 -40 -16 -144 -16 -104 0 -132 3 -144 16 -13 13 -16 42 -16 160 l0 144
-144 0 c-118 0 -147 3 -160 16 -13 13 -16 42 -16 158 l0 143 -217 6 c-120 4
-408 7 -640 7 l-423 0 0 -490z m954 128 c8 -30 8 -226 0 -255 l-6 -23 -309 0
-309 0 0 150 0 150 309 0 309 0 6 -22z m1916 -128 l0 -150 -150 0 -150 0 0
150 0 150 150 0 150 0 0 -150z m1600 -320 l0 -470 -150 0 -149 0 -3 158 -3
157 -157 3 -158 3 0 149 0 149 158 3 157 3 3 158 3 157 149 0 150 0 0 -470z"/>
<path d="M0 1440 l0 -170 323 2 322 3 0 165 0 165 -322 3 -323 2 0 -170z"/>
<path d="M954 1597 c-2 -7 -3 -82 -2 -167 l3 -155 325 0 325 0 0 165 0 165
-323 3 c-258 2 -324 0 -328 -11z"/>
<path d="M1914 1597 c-2 -7 -3 -82 -2 -167 l3 -155 325 0 325 0 0 165 0 165
-323 3 c-258 2 -324 0 -328 -11z"/>
<path d="M2874 1597 c-2 -7 -3 -82 -2 -167 l3 -155 325 0 325 0 0 165 0 165
-323 3 c-258 2 -324 0 -328 -11z"/>
<path d="M3834 1597 c-2 -7 -3 -82 -2 -167 l3 -155 325 0 325 0 0 165 0 165
-323 3 c-258 2 -324 0 -328 -11z"/>
<path d="M4794 1597 c-2 -7 -3 -82 -2 -167 l3 -155 163 -3 162 -2 0 170 0 170
-160 0 c-122 0 -162 -3 -166 -13z"/>
<path d="M314 957 c-2 -7 -3 -82 -2 -167 l3 -155 325 0 325 0 0 165 0 165
-323 3 c-258 2 -324 0 -328 -11z"/>
<path d="M1274 957 c-2 -7 -3 -82 -2 -167 l3 -155 325 0 325 0 0 165 0 165
-323 3 c-258 2 -324 0 -328 -11z"/>
<path d="M2234 957 c-2 -7 -3 -82 -2 -167 l3 -155 325 0 325 0 0 165 0 165
-323 3 c-258 2 -324 0 -328 -11z"/>
<path d="M3194 957 c-2 -7 -3 -82 -2 -167 l3 -155 325 0 325 0 0 165 0 165
-323 3 c-258 2 -324 0 -328 -11z"/>
<path d="M4154 957 c-2 -7 -3 -82 -2 -167 l3 -155 325 0 325 0 0 165 0 165
-323 3 c-258 2 -324 0 -328 -11z"/>
</g>
</svg>
